HIERARCHY
ROOT Hips
{
	OFFSET 0.00000 0.00000 0.00000
	CHANNELS 6 Xposition Yposition Zposition Zrotation Yrotation Xrotation 
	JOINT LHipJoint
	{
		OFFSET 0 0 0
		CHANNELS 3 Zrotation Yrotation Xrotation
		JOINT LeftHip
		{
			OFFSET 1.85742 -1.74412 1.01653
			CHANNELS 3 Zrotation Yrotation Xrotation
			JOINT LeftKnee
			{
				OFFSET 2.54803 -7.00067 0.00000
				CHANNELS 3 Zrotation Yrotation Xrotation
				JOINT LeftAnkle
				{
					OFFSET 2.51202 -6.90173 0.00000
					CHANNELS 3 Zrotation Yrotation Xrotation
					JOINT LeftToe
					{
						OFFSET 0.17547 -0.48209 1.64281
						CHANNELS 3 Zrotation Yrotation Xrotation
						End Site
						{
							OFFSET 0.00000 -0.00000 0.86587
						}
					}
				}
			}
		}
	}
	JOINT RHipJoint
	{
		OFFSET 0 0 0
		CHANNELS 3 Zrotation Yrotation Xrotation
		JOINT RightHip
		{
			OFFSET -1.95533 -1.74413 1.01654
			CHANNELS 3 Zrotation Yrotation Xrotation
			JOINT RightKnee
			{
				OFFSET -2.49465 -6.85400 0.00000
				CHANNELS 3 Zrotation Yrotation Xrotation
				JOINT RightAnkle
				{
					OFFSET -2.54783 -7.00010 0.00000
					CHANNELS 3 Zrotation Yrotation Xrotation
					JOINT RightToe
					{
						OFFSET -0.18513 -0.50864 1.69288
						CHANNELS 3 Zrotation Yrotation Xrotation
						End Site
						{
							OFFSET -0.00000 -0.00000 0.89242
						}
					}
				}
			}
		}
	}
	JOINT lowerback
	{
		OFFSET 0 0 0
		CHANNELS 3 Zrotation Yrotation Xrotation
		JOINT Chest
		{
			OFFSET 0.02173 2.16290 -0.15998
			CHANNELS 3 Zrotation Yrotation Xrotation
			JOINT Chest2
			{
				OFFSET 0.00940 2.17323 -0.00467
				CHANNELS 3 Zrotation Yrotation Xrotation
				JOINT lowerneck
				{
					OFFSET 0 0 0
					CHANNELS 3 Zrotation Yrotation Xrotation
					JOINT Neck
					{
						OFFSET 0.01475 1.85823 0.31113
						CHANNELS 3 Zrotation Yrotation Xrotation
						JOINT Head
						{
							OFFSET 0.01902 1.88783 -0.37187
							CHANNELS 3 Zrotation Yrotation Xrotation
							End Site
							{
								OFFSET 0.00489 1.93211 -0.16169
							}
						}
					}
				}
				JOINT LeftCollar
				{
					OFFSET 0 0 0
					CHANNELS 3 Zrotation Yrotation Xrotation
					JOINT LeftShoulder
					{
						OFFSET 3.34199 1.32384 -0.07862
CHANNELS 3 Zrotation Xrotation Yrotation
						JOINT LeftElbow
						{
OFFSET 0 -5.279500 0.000000
CHANNELS 3 Zrotation Xrotation Yrotation
							JOINT LeftWrist
							{
OFFSET 0 -3.535040 0.000000
CHANNELS 3 Zrotation Xrotation Yrotation
								JOINT lhand
								{
									OFFSET 0 0 0
CHANNELS 3 Zrotation Xrotation Yrotation
									JOINT LFingers
									{
OFFSET 0 -0.667950 0.000000
CHANNELS 3 Zrotation Xrotation Yrotation
										End Site
										{
OFFSET 0 -0.538520 0.000000
										}
									}
								}
								JOINT LThumb
								{
OFFSET 0 0.000000 0.000000
CHANNELS 3 Zrotation Xrotation Yrotation
									End Site
									{
OFFSET 0 -0.546740 0.546740
									}
								}
							}
						}
					}
				}
				JOINT RightCollar
				{
					OFFSET 0 0 0
					CHANNELS 3 Zrotation Yrotation Xrotation
					JOINT RightShoulder
					{
						OFFSET -3.16149 1.45719 -0.50507
CHANNELS 3 Zrotation Xrotation Yrotation
						JOINT RightElbow
						{
OFFSET 0 -5.250350 0.000000
CHANNELS 3 Zrotation Xrotation Yrotation
							JOINT RightWrist
							{
OFFSET 0 -3.588840 0.000000
CHANNELS 3 Zrotation Xrotation Yrotation
								JOINT rhand
								{
									OFFSET 0 0 0
CHANNELS 3 Zrotation Xrotation Yrotation
									JOINT RFingers
									{
OFFSET 0 -0.779240 0.000000
CHANNELS 3 Zrotation Xrotation Yrotation
										End Site
										{
OFFSET 0 -0.628240 0.000000
										}
									}
								}
								JOINT RThumb
								{
OFFSET 0 0.000000 0.000000
CHANNELS 3 Zrotation Xrotation Yrotation
									End Site
									{
OFFSET 0 -0.637830 0.637830
									}
								}
							}
						}
					}
				}
			}
		}
	}
}
MOTION
Frames: 4
Frame Time: 0.008333333333333333
4.137715 17.748065 -9.398559 -2.671442 -24.317555 17.249058 0.000000 0.000000 0.000000 -4.408749 -24.376543 -15.118893 0.965165 6.254979 17.526043 -0.403479 16.821580 -19.583373 2.942160 -10.600852 -30.945327 0.000000 0.000000 0.000000 17.154545 9.743873 -23.200488 -0.597162 -4.946762 13.756878 0.133129 -7.281738 -6.253169 -0.359162 3.848827 -10.651787 5.462901 1.083045 10.139501 -2.228544 1.810265 5.735604 -5.572645 1.048216 0.563518 -1.670117 2.179231 -19.954290 -7.049613 6.819115 39.200025 -1.609705 1.347043 18.404732 0.000000 0.000000 0.000000 -0.211452 -32.697862 -102.294019 63.039058 -57.066794 36.881047 27.286369 32.740633 -36.314613 0.000000 0.000000 0.000000 -7.125000 0.000000 0.000000 -9.499541 69.355211 5.559410 0.000000 0.000000 0.000000 -56.798863 -39.555185 51.424126 -58.348225 -55.853044 -32.970430 -14.894325 -3.127336 -33.700830 0.000000 0.000000 0.000000 7.125000 0.000000 0.000000 9.682248 -4.193201 10.511030
4.123426 17.747453 -9.412507 -2.658819 -24.081413 17.321251 0.000000 0.000000 0.000000 -4.246107 -24.279623 -15.348443 0.958945 6.235322 17.468869 -0.353607 16.435236 -19.519123 2.818609 -10.395404 -30.266942 0.000000 0.000000 0.000000 17.251703 9.508985 -23.574428 -0.625196 -5.059782 14.079106 0.122492 -7.126394 -6.359755 -0.306779 3.561000 -9.844715 5.700109 1.261141 10.371010 -2.089619 2.074143 5.853838 -5.589688 1.187250 0.603288 -2.000381 1.942489 -19.926252 -7.045813 6.592209 39.133390 -1.591826 1.217580 18.335421 0.000000 0.000000 0.000000 -0.791850 -32.942172 -102.970861 63.220934 -57.108820 37.033696 26.548589 32.183713 -36.646928 0.000000 0.000000 0.000000 -7.125000 0.000000 0.000000 -10.845663 69.448110 6.374471 0.000000 0.000000 0.000000 -58.234765 -39.039673 50.837426 -59.357460 -56.136096 -33.807046 -14.987264 -3.447048 -33.536922 0.000000 0.000000 0.000000 7.125000 0.000000 0.000000 9.612826 -4.046909 10.410587
4.107985 17.748465 -9.416518 -2.374950 -23.845529 17.300539 0.000000 0.000000 0.000000 -4.399683 -24.384714 -15.453125 0.942534 6.183346 17.317248 -0.365199 16.355465 -19.235733 2.888561 -10.512292 -30.652305 0.000000 0.000000 0.000000 17.008624 9.387604 -23.891738 -0.660364 -5.197215 14.471811 0.121376 -7.199160 -6.590824 -0.285996 3.439177 -9.504057 5.646088 1.356448 10.395765 -1.977063 2.193211 6.000074 -5.448401 1.251592 0.752371 -2.180731 1.830110 -19.785087 -7.331830 6.602108 39.027060 -1.687452 1.165970 18.254483 0.000000 0.000000 0.000000 -1.297984 -33.216457 -103.518690 63.374484 -57.144124 37.162728 26.739079 31.748930 -36.595980 0.000000 0.000000 0.000000 -7.125000 0.000000 0.000000 -10.533604 69.459386 6.192244 0.000000 0.000000 0.000000 -59.639430 -38.702299 50.403605 -60.484122 -56.437189 -34.744258 -14.968263 -3.982018 -33.268386 0.000000 0.000000 0.000000 7.125000 0.000000 0.000000 9.593886 -3.777694 10.347357
4.089033 17.745429 -9.421369 -2.275054 -23.597955 17.278142 0.000000 0.000000 0.000000 -4.396507 -24.300144 -15.534929 0.929530 6.141790 17.196385 -0.357718 16.102538 -18.887325 2.978080 -10.659453 -31.139820 0.000000 0.000000 0.000000 17.023254 9.152566 -24.099513 -0.685553 -5.293642 14.747956 0.114729 -7.149498 -6.761348 -0.307694 3.566009 -9.858904 5.791665 1.309040 10.518463 -1.914238 2.145884 6.133254 -5.462612 1.235870 0.823877 -2.173209 1.866166 -19.751472 -7.630129 6.775312 38.964533 -1.790514 1.198657 18.244147 0.000000 0.000000 0.000000 -1.291274 -33.409840 -103.438550 63.784258 -57.236555 37.507132 26.944711 31.559041 -36.523308 0.000000 0.000000 0.000000 -7.125000 0.000000 0.000000 -10.177895 69.453154 5.980228 0.000000 0.000000 0.000000 -60.845515 -38.767284 50.442075 -61.603245 -56.722112 -35.678309 -15.593962 -4.681737 -33.081959 0.000000 0.000000 0.000000 7.125000 0.000000 0.000000 9.225650 -3.701178 9.928095
